<svg width="65" height="65" viewBox="0 0 65 65" fill="none" xmlns="http://www.w3.org/2000/svg">
<path d="M32.5 5.41667C28.9433 5.41667 25.4215 6.1172 22.1356 7.47827C18.8497 8.83933 15.8641 10.8343 13.3492 13.3492C8.27004 18.4283 5.41663 25.3171 5.41663 32.5C5.41663 44.4708 13.1895 54.6271 23.9416 58.2292C25.2958 58.4458 25.7291 57.6063 25.7291 56.875V52.2979C18.227 53.9229 16.6291 48.6688 16.6291 48.6688C15.3833 45.5271 13.6229 44.6875 13.6229 44.6875C11.1583 43.0083 13.8125 43.0625 13.8125 43.0625C16.5208 43.2521 17.9562 45.8521 17.9562 45.8521C20.3125 49.9688 24.2937 48.75 25.8375 48.1C26.0812 46.3396 26.7854 45.1479 27.5437 44.4708C21.5312 43.7938 15.2208 41.4646 15.2208 31.1458C15.2208 28.1396 16.25 25.7292 18.0104 23.8063C17.7395 23.1292 16.7916 20.3125 18.2812 16.6563C18.2812 16.6563 20.5562 15.925 25.7291 19.4188C27.8687 18.8229 30.1979 18.525 32.5 18.525C34.802 18.525 37.1312 18.8229 39.2708 19.4188C44.4437 15.925 46.7187 16.6563 46.7187 16.6563C48.2083 20.3125 47.2604 23.1292 46.9895 23.8063C48.75 25.7292 49.7791 28.1396 49.7791 31.1458C49.7791 41.4917 43.4416 43.7667 37.402 44.4438C38.377 45.2833 39.2708 46.9354 39.2708 49.4542V56.875C39.2708 57.6063 39.7041 58.4729 41.0854 58.2292C51.8375 54.6 59.5833 44.4708 59.5833 32.5C59.5833 28.9434 58.8828 25.4216 57.5217 22.1357C56.1606 18.8498 54.1657 15.8641 51.6508 13.3492C49.1358 10.8343 46.1502 8.83933 42.8643 7.47827C39.5784 6.1172 36.0566 5.41667 32.5 5.41667Z" fill="#8A0000"/>
</svg>
