<svg width="65" height="65" viewBox="0 0 65 65" fill="none" xmlns="http://www.w3.org/2000/svg">
<path d="M51.4583 8.125C52.8949 8.125 54.2727 8.69568 55.2885 9.7115C56.3043 10.7273 56.875 12.1051 56.875 13.5417V51.4583C56.875 52.8949 56.3043 54.2727 55.2885 55.2885C54.2727 56.3043 52.8949 56.875 51.4583 56.875H13.5417C12.1051 56.875 10.7273 56.3043 9.7115 55.2885C8.69568 54.2727 8.125 52.8949 8.125 51.4583V13.5417C8.125 12.1051 8.69568 10.7273 9.7115 9.7115C10.7273 8.69568 12.1051 8.125 13.5417 8.125H51.4583ZM50.1042 50.1042V35.75C50.1042 33.4084 49.174 31.1626 47.5182 29.5068C45.8624 27.851 43.6166 26.9208 41.275 26.9208C38.9729 26.9208 36.2917 28.3292 34.9917 30.4417V27.4354H27.4354V50.1042H34.9917V36.7521C34.9917 34.6667 36.6708 32.9604 38.7563 32.9604C39.7619 32.9604 40.7263 33.3599 41.4374 34.071C42.1484 34.782 42.5479 35.7465 42.5479 36.7521V50.1042H50.1042ZM18.6333 23.1833C19.8401 23.1833 20.9974 22.704 21.8507 21.8507C22.704 20.9974 23.1833 19.8401 23.1833 18.6333C23.1833 16.1146 21.1521 14.0562 18.6333 14.0562C17.4194 14.0562 16.2552 14.5385 15.3968 15.3968C14.5385 16.2552 14.0562 17.4194 14.0562 18.6333C14.0562 21.1521 16.1146 23.1833 18.6333 23.1833ZM22.3979 50.1042V27.4354H14.8958V50.1042H22.3979Z" fill="#8A0000"/>
</svg>
